<svg width="121" height="30" fill="none" xmlns="http://www.w3.org/2000/svg"><path d="M49.4 23.495c-1.28 0-2.521-.181-3.722-.545-1.185-.363-2.126-.845-2.821-1.446l1.067-2.394c.68.538 1.509.98 2.489 1.328a9.394 9.394 0 002.986.497c1.233 0 2.15-.197 2.75-.592.616-.395.925-.917.925-1.565 0-.474-.174-.86-.522-1.161-.332-.316-.759-.561-1.28-.735a28.839 28.839 0 00-2.133-.593c-1.265-.3-2.292-.6-3.082-.9a5.218 5.218 0 01-2.015-1.399c-.553-.648-.83-1.517-.83-2.607 0-.917.245-1.747.735-2.49.506-.758 1.257-1.358 2.252-1.8 1.012-.443 2.244-.664 3.698-.664 1.011 0 2.007.126 2.987.379s1.825.616 2.536 1.09l-.972 2.394a9.587 9.587 0 00-2.275-.972 8.512 8.512 0 00-2.3-.331c-1.216 0-2.125.205-2.726.616-.584.41-.877.956-.877 1.636 0 .473.166.86.498 1.161.348.3.782.537 1.304.711.521.174 1.232.371 2.133.593 1.233.284 2.244.584 3.034.9.79.3 1.462.767 2.015 1.399.57.632.854 1.485.854 2.56a4.32 4.32 0 01-.759 2.489c-.49.743-1.24 1.335-2.252 1.778-1.011.442-2.244.663-3.698.663zm16.495-13.037c1.233 0 2.331.269 3.295.806a5.79 5.79 0 012.3 2.276c.552.98.829 2.11.829 3.39 0 1.28-.277 2.417-.83 3.413a5.79 5.79 0 01-2.299 2.275c-.964.538-2.062.806-3.295.806-1.707 0-3.058-.569-4.053-1.706v6.139h-2.963V10.6h2.82v1.66a4.6 4.6 0 011.802-1.351c.727-.3 1.525-.45 2.394-.45zm-.332 10.43c1.09 0 1.983-.363 2.679-1.09.711-.727 1.066-1.683 1.066-2.869 0-1.185-.355-2.14-1.066-2.868-.696-.727-1.588-1.09-2.679-1.09a3.74 3.74 0 00-1.92.498 3.431 3.431 0 00-1.35 1.375c-.333.6-.499 1.295-.499 2.085s.166 1.486.498 2.086c.332.6.782 1.067 1.351 1.399.57.316 1.21.474 1.92.474zm14.24-10.43c1.864 0 3.287.45 4.266 1.351.996.885 1.494 2.229 1.494 4.03v7.42h-2.797v-1.541c-.364.553-.885.98-1.565 1.28-.664.284-1.47.426-2.418.426-.948 0-1.778-.158-2.489-.474-.71-.332-1.264-.782-1.659-1.35a3.537 3.537 0 01-.569-1.968c0-1.138.419-2.047 1.257-2.726.853-.696 2.188-1.043 4.006-1.043h3.27v-.19c0-.885-.268-1.564-.805-2.038-.522-.474-1.304-.712-2.347-.712a6.92 6.92 0 00-2.11.332c-.68.221-1.256.53-1.73.925l-1.162-2.157c.664-.506 1.462-.893 2.395-1.162a10.65 10.65 0 012.963-.403zm-.403 10.81c.742 0 1.398-.167 1.967-.498A2.815 2.815 0 0082.6 19.3v-1.47h-3.058c-1.707 0-2.56.561-2.56 1.683 0 .537.213.964.64 1.28.427.316 1.02.474 1.778.474zm15.889 2.156c-1.312 0-2.49-.276-3.532-.83a6.117 6.117 0 01-2.442-2.299c-.585-.995-.877-2.117-.877-3.366 0-1.248.292-2.362.877-3.342a6.158 6.158 0 012.418-2.3c1.043-.552 2.228-.829 3.556-.829 1.248 0 2.338.253 3.27.759a4.906 4.906 0 012.134 2.18l-2.275 1.328c-.364-.585-.822-1.02-1.375-1.304-.538-.3-1.13-.45-1.778-.45-1.106 0-2.023.363-2.75 1.09-.727.711-1.09 1.667-1.09 2.868 0 1.201.355 2.165 1.067 2.892.726.711 1.65 1.067 2.773 1.067a3.74 3.74 0 001.778-.427c.553-.3 1.011-.742 1.374-1.327l2.276 1.327a5.183 5.183 0 01-2.157 2.205c-.932.506-2.015.758-3.247.758zM114.969 17c0 .206-.016.498-.048.878h-9.932c.174.932.624 1.675 1.351 2.228.743.537 1.66.806 2.75.806 1.391 0 2.536-.459 3.437-1.375l1.588 1.825a5.353 5.353 0 01-2.157 1.54c-.869.348-1.849.522-2.939.522-1.391 0-2.615-.276-3.674-.83-1.059-.552-1.881-1.319-2.465-2.299-.569-.995-.854-2.117-.854-3.366 0-1.232.277-2.338.83-3.318a6.027 6.027 0 012.347-2.323c.995-.553 2.117-.83 3.366-.83 1.232 0 2.33.277 3.294.83a5.594 5.594 0 012.276 2.3c.553.979.83 2.117.83 3.412zm-6.4-4.171c-.949 0-1.755.284-2.418.853-.648.553-1.043 1.296-1.185 2.228h7.182c-.127-.916-.514-1.66-1.162-2.228-.648-.569-1.453-.853-2.417-.853zm10.194 10.595c-.537 0-.996-.181-1.375-.545-.379-.38-.569-.853-.569-1.422 0-.585.182-1.059.545-1.422.38-.364.846-.546 1.399-.546s1.011.182 1.375.546c.379.363.569.837.569 1.422 0 .569-.19 1.043-.569 1.422a1.916 1.916 0 01-1.375.545z" fill="#000"/><circle cx="6.923" cy="6.923" r="6.923" fill="#0050EF"/><circle cx="23.077" cy="6.923" r="6.923" fill="#0050EF"/><circle cx="6.923" cy="23.077" r="6.923" fill="#0050EF"/><circle cx="23.077" cy="23.077" r="6.923" fill="#0050EF"/></svg>