<svg width="20" height="20" fill="none" xmlns="http://www.w3.org/2000/svg"><path fill-rule="evenodd" clip-rule="evenodd" d="M18.467 5.285a6.41 6.41 0 01-1.88.514 3.273 3.273 0 001.442-1.81 6.62 6.62 0 01-2.084.794 3.273 3.273 0 00-5.575 2.988 9.323 9.323 0 01-6.755-3.42 3.274 3.274 0 001.016 4.372 3.274 3.274 0 01-1.483-.409v.04a3.275 3.275 0 002.627 3.21 3.249 3.249 0 01-1.483.06 3.283 3.283 0 003.06 2.275A6.59 6.59 0 012.5 15.254a9.274 9.274 0 005.02 1.47c6.026 0 9.318-4.99 9.318-9.315 0-.14-.006-.286-.012-.426a6.67 6.67 0 001.64-1.698z" fill="#fff"/></svg>