<svg width="20" height="20" fill="none" xmlns="http://www.w3.org/2000/svg"><path d="M18.657 14.667a1.351 1.351 0 00-.06-.122c-.303-.586-.883-1.306-1.74-2.159l-.017-.02-.01-.01-.009-.009h-.009c-.389-.397-.635-.664-.738-.801-.189-.26-.23-.524-.128-.791.073-.202.347-.629.82-1.28.25-.345.447-.622.593-.83 1.05-1.498 1.506-2.455 1.366-2.872l-.054-.097c-.036-.06-.13-.113-.282-.162a1.35 1.35 0 00-.584-.024l-2.624.02c-.042-.017-.103-.015-.182.004l-.118.03-.046.024-.036.03a.418.418 0 00-.1.102.682.682 0 00-.091.171 16.48 16.48 0 01-.976 2.198c-.224.404-.43.754-.62 1.05a5.022 5.022 0 01-.473.654c-.127.14-.243.253-.346.337-.104.085-.182.12-.237.108a6.222 6.222 0 01-.155-.04.635.635 0 01-.205-.239 1.13 1.13 0 01-.105-.38 4.482 4.482 0 01-.032-.396 8.746 8.746 0 01.005-.47c.006-.201.01-.338.01-.41 0-.247.004-.516.013-.805l.022-.689c.007-.17.01-.348.01-.537 0-.19-.011-.337-.032-.445a1.6 1.6 0 00-.096-.312.518.518 0 00-.187-.235 1.014 1.014 0 00-.305-.132c-.322-.078-.732-.12-1.23-.127-1.13-.013-1.856.066-2.178.235-.127.071-.243.17-.346.293-.11.143-.124.221-.045.234.364.059.622.199.774.42l.055.118c.042.084.085.234.127.449.043.215.07.452.082.713.03.475.03.882 0 1.22-.03.34-.059.603-.086.792a1.671 1.671 0 01-.233.674.162.162 0 01-.045.049.64.64 0 01-.246.049c-.085 0-.188-.046-.31-.137a2.251 2.251 0 01-.378-.376 5.04 5.04 0 01-.442-.67 11.971 11.971 0 01-.51-1.015l-.146-.283a25.107 25.107 0 01-.373-.796 15.929 15.929 0 01-.42-1.012.641.641 0 00-.218-.312l-.046-.03a.917.917 0 00-.355-.146l-2.497.02c-.255 0-.428.061-.52.185l-.036.059a.336.336 0 00-.027.156c0 .072.018.16.055.264.364.918.76 1.804 1.189 2.657.428.853.8 1.54 1.116 2.06a24.4 24.4 0 00.966 1.476c.328.462.545.758.651.889.106.13.19.228.25.293l.229.234c.145.156.36.344.642.562.282.218.595.433.938.645.344.211.743.384 1.199.517a3.88 3.88 0 001.33.162h1.048c.212-.02.373-.092.483-.215l.036-.05a.673.673 0 00.068-.18 1.06 1.06 0 00.032-.269c-.006-.28.014-.532.06-.756.045-.225.096-.394.154-.508a1.248 1.248 0 01.351-.43.576.576 0 01.073-.034c.146-.052.317-.002.515.151.197.153.383.342.556.567.173.225.38.477.624.757.243.28.455.488.638.625l.182.117c.121.078.28.15.474.215a.956.956 0 00.51.049l2.332-.039c.231 0 .41-.041.538-.122.127-.082.203-.171.228-.269a.81.81 0 00.004-.332 1.296 1.296 0 00-.064-.259z" fill="#fff"/></svg>